<?xml version="1.0" encoding="utf-8"?>
<!-- Generator: Adobe Illustrator 28.1.0, SVG Export Plug-In . SVG Version: 6.00 Build 0)  -->
<svg version="1.1" id="Layer_1" xmlns="http://www.w3.org/2000/svg" xmlns:xlink="http://www.w3.org/1999/xlink" x="0px" y="0px"
	 viewBox="0 0 1214 413" style="enable-background:new 0 0 1214 413;" xml:space="preserve">
<g>
	<g>
		<path d="M303.3,69.6c-46.3-40.1-100.2-54.2-160-41.5C89.8,39.5,49.6,70.3,22.4,117.7c-12.6,22-19.7,45.9-22.2,71.1
			c-0.2,1.6-0.6,3,1.7,4c31.4,12.8,62.7,25.8,94.1,38.8c1.5,0.6,2.5,0.6,3.9-0.2c8.6-5.5,18.1-8.1,28.3-7.9c1.6,0,2.4-0.6,3.2-1.8
			c13.7-19.9,27.4-39.8,41.1-59.7c0.7-1,1.1-2.4,1.2-3.7c0.6-4.2,0.6-8.6,1.5-12.8c8-37,42.2-60.1,79.7-53.9
			c37.8,6.2,63.8,45,55.3,82.3c-7.4,32.2-34.2,53.9-67.4,54.6c-1,0-2.2,0.3-3.1,0.9c-19.8,14-39.5,28.1-59.2,42.3
			c-0.8,0.6-1.4,1.8-1.5,2.9c-0.5,3.5-0.4,7.2-1.1,10.7c-4.7,23.7-25.3,41.2-48.9,41.7c-25.1,0.5-46.2-15.4-52.2-39.4
			c-0.4-1.5-1.1-2.4-2.6-3c-16.4-6.7-32.8-13.5-49.1-20.2c-6.1-2.5-12.3-5.1-18.9-7.8c0.6,2.1,1,3.6,1.5,5.1
			c28,87.9,117.3,143.1,211,124.2c43.1-8.7,78.7-30.4,106.1-64.7c34.6-43.4,46.9-93,37.4-147.5C354.9,132.1,335.1,97.1,303.3,69.6z"
			/>
		<path d="M1133.1,137.7c-2,0-3,0.6-3.9,2.5c-14.1,31.5-28.2,62.9-42.3,94.3c-0.3,0.8-0.7,1.5-1.2,2.5c-0.5-1-0.9-1.7-1.2-2.5
			c-14.6-31.4-29.3-62.7-43.8-94.2c-1-2.1-2.1-2.7-4.3-2.7c-7.2,0.1-14.5,0.1-21.7,0.1c-0.9,0-1.7,0-2.7,0c0,46.1,0,91.8,0,137.5
			c9.2,0,18.2,0,27.6,0c0-27.5,0-54.8,0-82.2c0.8,0.7,1.2,1.4,1.6,2.2c11.5,24.7,23,49.4,34.4,74.1c0.7,1.6,1.6,2.2,3.4,2.1
			c3.7-0.2,7.5-0.2,11.2,0c2.1,0.1,3-0.6,3.9-2.4c11.6-25,23.3-49.9,35-74.9c0.3-0.7,0.8-1.4,1.1-2.1c0.2,0,0.3,0.1,0.5,0.1
			c0,27.7,0,55.4,0,83.1c9.3,0,18.3,0,27.4,0c0-45.9,0-91.6,0-137.5c-1,0-1.9,0-2.7,0C1147.9,137.7,1140.5,137.8,1133.1,137.7z"/>
		<path d="M930,139.7c-0.6-1.5-1.4-2-3-2c-8.2,0.1-16.4,0.1-24.6,0c-1.8,0-2.6,0.6-3.2,2.3c-16.6,44.3-33.2,88.6-49.8,132.9
			c-0.3,0.8-0.6,1.5-0.9,2.6c9.6,0,18.8-0.1,28,0c1.8,0,2.5-0.7,3-2.2c2.5-7.5,5.1-15,7.6-22.6c0.5-1.5,1.2-2.1,2.8-2
			c16.5,0.1,33.1,0.1,49.6,0c1.7,0,2.3,0.6,2.9,2.1c2.6,7.6,5.3,15.1,7.8,22.7c0.5,1.5,1.2,2.1,2.9,2c8.1-0.1,16.2,0,24.3,0
			c1.5,0,3,0,4.7,0c-0.3-0.8-0.4-1.4-0.6-2C964.4,228.8,947.2,184.3,930,139.7z M895.8,225.6c6.2-18.1,12.3-36.2,18.5-54.2
			c0.2,0,0.4,0,0.6,0c6.3,18,12.5,36,18.9,54.2C921,225.6,908.5,225.6,895.8,225.6z"/>
		<path d="M759.5,218c18.5,0,36.7,0,54.9,0c0-8.3,0-16.4,0-24.7c-18.5,0-36.7,0-54.9,0c0-10.4,0-20.6,0-31c21.3,0,42.5,0,63.7,0
			c0-8.3,0-16.4,0-24.4c-31,0-61.7,0-92.5,0c0,45.9,0,91.6,0,137.4c31,0,61.7,0,92.6,0c0-8.3,0-16.4,0-24.7c-21.3,0-42.4,0-63.7,0
			C759.5,239.6,759.5,228.9,759.5,218z"/>
		<path d="M554.1,209.4c-4.4-3.5-9.2-6.6-14.3-8.9c-8.2-3.6-16.8-6.1-25.2-9.5c-5.3-2.1-10.5-4.7-15.6-7.4c-2.4-1.3-3.8-3.8-4.3-6.6
			c-1.4-7.1,2.4-13.3,9.9-15.7c6.3-2.1,12.7-1.8,19.1-0.8c8.9,1.5,17.1,4.7,24.8,9.8c4.1-7.2,8.1-14.3,12.2-21.5
			c-1-0.7-1.8-1.3-2.6-1.8c-21.3-12.3-43.9-15.4-67.2-7.7c-19.9,6.5-29.5,23.9-25.7,44.4c2.1,11.5,9.5,18.9,19.3,24.4
			c8.4,4.7,17.6,7.2,26.5,10.5c5.9,2.2,12,4.4,17.4,7.6c8.7,5.1,6.3,16,0.2,20.2c-3.5,2.4-7.4,3.6-11.5,4.1
			c-12.9,1.7-25.3-0.8-37.3-5.4c-2.8-1.1-5.6-2.4-8.5-3.7c-3,8-5.9,15.8-8.9,23.7c1.4,0.8,2.5,1.5,3.6,2c17.7,8.9,36.4,12.2,56,10
			c10.1-1.1,19.6-4.3,27.7-10.7c11.5-9.1,15.8-21.3,15-35.6C564,222.3,560.9,214.8,554.1,209.4z"/>
		<path d="M586,162.4c13.9,0,27.6,0,41.8,0c0,37.9,0,75.3,0,112.9c9.7,0,19.1,0,28.8,0c0-37.6,0-75.1,0-112.9c14,0,27.8,0,41.6,0
			c0-8.4,0-16.4,0-24.5c-37.5,0-74.8,0-112.2,0C586,146,586,154.1,586,162.4z"/>
		<path d="M288.6,159.4c0-25.4-20.6-45.9-46-45.9c-25.4,0-45.9,20.6-45.9,46c0,25.4,20.6,45.9,46,45.9
			C268.1,205.3,288.6,184.8,288.6,159.4z M208.2,159.2c0-19,15.5-34.3,34.6-34.3c19.2,0,34.7,15.6,34.5,34.6
			c-0.2,19.1-15.6,34.3-34.6,34.3C223.5,193.8,208.2,178.4,208.2,159.2z"/>
		<path d="M121.9,303c-4-0.6-7.9-2.2-11.8-3.7c-5.8-2.2-11.4-4.7-17.6-7.2c6.5,15.1,27,27.5,48.5,19.2c20.6-7.9,30.5-31.2,21.8-51.5
			c-9-21-32.4-27.9-49.1-21c0.9,0.4,1.7,0.8,2.5,1.1c7.2,3,14.4,5.8,21.5,9c12.8,5.7,19.3,20.4,15.3,33.9
			C149,296.4,135.7,305.2,121.9,303z"/>
		<path d="M1195,135.9c-11,0-19.1,8.1-19.2,19.1c0,11,8.1,19.2,19.1,19.2c11.1,0,19-8,19.1-19.1C1214,144,1206.1,135.9,1195,135.9z
			 M1194.9,171.2c-9.2,0-15.9-6.8-15.9-16.1c0-9.3,6.6-16.1,15.8-16.1c9.2-0.1,15.9,6.6,16,16C1211,164.3,1204.2,171.2,1194.9,171.2
			z"/>
	</g>
	<path d="M1202.5,163.7l-4-7.5c0.5-0.2,1-0.5,1.4-0.9c1.1-1,1.7-2.4,1.7-4.1c0-1.7-0.6-3.1-1.7-4.1c-1.1-1-2.7-1.5-4.8-1.5h-6.3v18
		h3.3v-6.8h3c0,0,0.1,0,0.1,0l3.5,6.8H1202.5z M1192.2,148.3h2.9c1.2,0,2,0.3,2.5,0.8c0.5,0.6,0.7,1.3,0.7,2.2
		c0,0.9-0.2,1.7-0.7,2.3c-0.5,0.6-1.3,0.9-2.5,0.9h-2.9V148.3z"/>
</g>
</svg>
